<?xml version="1.0" standalone="no"?>
<!DOCTYPE svg PUBLIC "-//W3C//DTD SVG 20010904//EN"
 "http://www.w3.org/TR/2001/REC-SVG-20010904/DTD/svg10.dtd">
<svg version="1.0" xmlns="http://www.w3.org/2000/svg"
 width="621.000000pt" height="621.000000pt" viewBox="0 0 621.000000 621.000000"
 preserveAspectRatio="xMidYMid meet">

<g transform="translate(0.000000,621.000000) scale(0.100000,-0.100000)"
fill="#000000" stroke="none">
<path d="M0 3105 l0 -3105 3105 0 3105 0 0 3105 0 3105 -3105 0 -3105 0 0
-3105z m3720 1854 c509 -171 954 -320 990 -331 82 -25 86 -29 94 -81 4 -23 88
-472 186 -997 99 -525 180 -961 180 -969 0 -7 -37 31 -82 86 -170 204 -284
340 -340 404 l-58 65 -111 590 c-61 324 -111 589 -112 590 -1 1 -327 110 -725
244 -401 134 -727 239 -731 234 -5 -5 -18 -38 -31 -74 -12 -36 -46 -135 -75
-220 -100 -292 -276 -805 -320 -935 -24 -71 -63 -184 -86 -250 -22 -66 -92
-268 -154 -450 -62 -181 -116 -337 -119 -345 -4 -11 -64 -26 -208 -52 -111
-21 -203 -36 -205 -35 -2 2 6 30 18 63 26 75 273 799 344 1009 30 88 77 228
106 310 45 131 179 525 419 1233 71 209 76 222 88 222 4 0 423 -140 932 -311z
m-1276 -85 l-109 -327 -135 -120 c-146 -129 -286 -254 -415 -366 -16 -14 -106
-93 -200 -175 -93 -82 -173 -152 -178 -156 -4 -3 2 -51 13 -106 10 -54 74
-389 140 -744 67 -355 125 -648 128 -651 4 -4 540 94 1192 217 652 123 1195
223 1207 224 12 0 23 -4 25 -9 2 -5 30 -40 64 -77 154 -173 193 -219 190 -221
-3 -3 -424 -83 -1941 -367 -545 -103 -1000 -188 -1011 -191 -20 -4 -23 1 -32
53 -6 31 -92 489 -191 1018 -100 528 -181 969 -181 980 1 10 20 35 44 54 34
27 391 338 510 443 12 10 63 55 115 100 207 180 520 453 581 507 163 144 285
247 289 244 2 -2 -45 -151 -105 -330z m729 -306 c13 -18 35 -45 48 -59 13 -14
51 -57 84 -95 73 -84 92 -106 187 -214 41 -47 155 -177 252 -290 98 -113 204
-234 235 -270 31 -35 76 -87 101 -115 25 -28 83 -96 130 -150 71 -82 247 -284
349 -400 14 -17 53 -62 86 -100 33 -39 62 -72 65 -75 3 -3 34 -39 70 -80 107
-123 124 -143 140 -160 84 -90 191 -223 184 -230 -5 -4 -85 -74 -179 -155 -93
-82 -172 -151 -175 -154 -3 -3 -36 -33 -75 -66 -38 -33 -72 -62 -75 -65 -3 -3
-36 -32 -75 -65 -38 -33 -72 -62 -75 -65 -3 -3 -59 -52 -125 -110 -66 -58
-136 -119 -155 -136 -90 -80 -531 -465 -591 -516 l-67 -57 -183 64 c-101 35
-263 91 -359 125 -96 34 -186 66 -200 70 -14 4 -90 31 -170 60 -80 28 -194 69
-255 90 -240 84 -484 169 -570 200 -49 17 -118 41 -153 52 -35 11 -61 22 -59
24 2 2 161 34 352 70 l348 65 226 -77 c697 -236 937 -317 947 -318 10 -1 48
31 199 164 28 25 82 72 120 105 38 33 87 76 109 95 23 19 56 49 76 66 29 26
192 168 400 349 19 16 55 48 80 70 25 23 73 65 108 94 34 29 62 58 62 64 0 7
-28 44 -63 83 -34 39 -100 115 -147 169 -47 54 -105 122 -130 150 -25 28 -83
96 -130 150 -100 115 -157 182 -351 405 -79 91 -199 228 -265 305 -67 77 -207
238 -311 359 l-189 218 65 194 c36 107 69 194 72 194 4 0 18 -15 32 -32z
m-200 -635 c81 -92 231 -259 398 -442 52 -57 114 -127 139 -155 95 -110 400
-445 410 -451 29 -18 6 -34 -72 -48 -46 -9 -270 -52 -498 -97 -708 -139 -932
-181 -937 -177 -2 2 2 17 8 33 9 24 102 276 180 489 21 59 64 178 143 400 32
88 63 174 70 190 7 17 35 92 62 168 27 75 50 137 52 137 2 0 23 -21 45 -47z"/>
</g>
</svg>
